<svg width="30" height="62" viewBox="0 0 30 62" fill="none" xmlns="http://www.w3.org/2000/svg">
<path d="M9.61675 50.2597C9.61675 50.2597 7 47.2254 7 34.9943C7 22.7632 13.8338 7 15.0833 7L15.1225 7.00471C16.4688 7.31491 23.1667 22.8855 23.1667 34.9943C23.1667 47.2254 20.5499 50.2597 20.5499 50.2597C20.5499 50.2597 19.7283 51.4583 15.0833 51.4583C10.4384 51.4583 9.61675 50.2597 9.61675 50.2597Z" fill="white"/>
<path fill-rule="evenodd" clip-rule="evenodd" d="M9.17023 37.3715C9.96074 35.9445 19.8637 35.9445 21.0279 37.3715C21.5626 38.027 20.1619 48.8137 19.2108 49.7471C17.3085 50.6804 12.5527 50.6804 10.6505 49.7471C9.69931 48.8137 8.61981 38.365 9.17023 37.3715Z" fill="url(#paint0_linear_3852_10900)"/>
<defs>
<filter id="filter0_f_3852_10900" x="0.75" y="0.75" width="28.6667" height="61" filterUnits="userSpaceOnUse" color-interpolation-filters="sRGB">
<feFlood flood-opacity="0" result="BackgroundImageFix"/>
<feBlend mode="normal" in="SourceGraphic" in2="BackgroundImageFix" result="shape"/>
<feGaussianBlur stdDeviation="3.125" result="effect1_foregroundBlur_3852_10900"/>
</filter>
<linearGradient id="paint0_linear_3852_10900" x1="14.9306" y1="36.2134" x2="14.9306" y2="50.6804" gradientUnits="userSpaceOnUse">
<stop stop-opacity="0.14"/>
<stop offset="1" stop-opacity="0.03"/>
</linearGradient>
</defs>
</svg>
